<svg width="1000" height="295" viewBox="0 0 1000 295" fill="none" xmlns="http://www.w3.org/2000/svg">
<path d="M406.58 161.59C386.19 161.59 385.84 183.84 381.02 183.84C380.01 183.84 379.22 182.95 379.22 181.73C379.22 180.1 379.64 178.69 379.64 176.07C379.64 168.08 374.02 161.58 362.23 161.58C352.22 161.58 344.9 166.59 340.43 175.87C338.16 180.57 338.36 183.84 336.07 183.84C335.22 183.84 334.57 183.04 334.57 181.89C334.57 178.49 337.58 175.37 337.58 168.06C337.58 166.16 337.43 164.55 337.13 163.25H317.73V238.43H344.04V197.64C344.04 189.6 347.48 184.45 353.36 184.45C357.26 184.45 360.73 187.85 360.73 194.09V238.43H387.04V197.64C387.04 188.61 391.22 184.45 396.36 184.45C400.67 184.45 403.73 188.44 403.73 194.09V238.43H429.74V192.27C429.74 172.1 421.73 161.59 406.58 161.59Z" fill="white"/>
<path d="M586.56 142.19H560.55V238.43H586.56V142.19Z" fill="white"/>
<path d="M595.14 199.93C595.14 225.51 611.69 240.23 633.18 240.23C645.5 240.23 654.92 235.36 660.7 230.61V205.8C654.85 209.8 645.85 214.37 636.19 214.37C624.14 214.37 617.85 209.36 617.85 200.69C617.85 192.02 625.1 187.16 635.74 187.16C645.37 187.16 654.21 190.99 660.7 195.43V169.12C655.21 165.03 645.5 161.45 633.18 161.45C610.12 161.45 595.14 175.87 595.14 199.94V199.93Z" fill="white"/>
<path d="M717.99 161.74C707.41 161.74 701.28 166.64 696.79 175.72C694.81 179.72 694.66 183.69 692.43 183.69C691.59 183.69 690.93 182.91 690.93 181.74C690.93 177.58 695.89 171.36 695.89 153.02C695.89 148.41 695.44 144.85 694.54 142.34H671.83V238.43H698.14V197.97C698.14 190.39 702.13 184.6 708.22 184.6C712.75 184.6 715.89 188.28 715.89 194.24V238.43H742.2V191.36C742.2 171.72 733.63 161.74 717.99 161.74Z" fill="white"/>
<path d="M959.48 161.44C947.85 161.44 941.91 168.07 938.59 174.19C935.96 179.04 935.58 183.69 933.32 183.69C932.22 183.69 931.67 183.04 931.67 181.74C931.67 179.44 934.68 175.53 934.68 169.11C934.68 166.5 934.48 164.55 934.08 163.25H914.38V257.68H940.85V228.02C944.21 235.19 951.24 239.94 960.85 239.94C978.18 239.94 990.02 225.64 990.02 200.69C990.02 177.67 979.05 161.44 959.5 161.44H959.48ZM952.41 222.64C947.1 222.64 941.28 217.13 941.28 203.24C941.28 191.14 946.03 183.99 952.41 183.99C959.74 183.99 963.84 191.05 963.84 203.24C963.84 216.78 959.12 222.64 952.41 222.64Z" fill="white"/>
<path d="M766.41 168.51C760.9 168.51 756.53 167.71 753.33 166.1V238.43H779.34V166.1C775.96 167.58 771.94 168.51 766.41 168.51Z" fill="white"/>
<path d="M766.25 141.74C755.5 141.74 749.86 146.5 749.86 151.96C749.86 157.85 756.52 162.19 766.25 162.19C775.98 162.19 782.64 157.85 782.64 151.96C782.64 146.49 777 141.74 766.25 141.74Z" fill="white"/>
<path d="M476.76 161.44C463.16 161.44 450.72 164.8 442.07 169.1V190.88C452.14 185.44 462.46 181.42 471.5 181.42C481.19 181.42 485.29 186.53 484.72 193.26C480.81 192.85 476.47 192.69 471.2 192.69C450.62 192.69 437.71 200.72 437.71 218.22C437.71 232.59 448.9 240 461.14 240C473.38 240 481.3 234.29 486.06 225.68C488.77 220.78 488.54 217.77 490.31 217.77C491.17 217.77 491.78 218.39 491.78 219.35C491.78 222.49 490.88 224.33 490.88 228.58C490.88 232.56 491.4 235.91 492.23 238.34H511.15V198.09C511.15 175.23 500.69 161.45 476.76 161.45V161.44ZM467.9 221.51C463.02 221.51 460.39 219.37 460.39 215.65C460.39 210.8 464.95 207.09 476.76 207.09C479.36 207.09 481.72 207.18 483.85 207.35C482.81 214.27 476.77 221.5 467.9 221.5V221.51Z" fill="white"/>
<path d="M570.57 92.38V50.2H552.46V90.22C552.46 100.13 545.82 106.77 537.1 106.77C528.38 106.77 521.75 100.13 521.75 90.22V50.2H503.67L503.77 92.38C503.77 110.75 518.47 124.18 537.16 124.18C555.85 124.18 570.57 110.78 570.57 92.38Z" fill="white"/>
<path d="M640.52 122.72H658.6V67.14H680.18V50.2H618.92V67.14H640.52V122.72Z" fill="white"/>
<path d="M607.23 50.23H589.15V122.75H607.23V50.23Z" fill="white"/>
<path d="M452.3 122.72H470.38V67.14H491.96V50.2H430.7V67.14H452.3V122.72Z" fill="white"/>
<path d="M335.8 86.5V50.23H317.71V122.75H335.8V86.5Z" fill="white"/>
<path d="M372.44 82.7C372.44 72.79 379.08 66.15 387.79 66.15C396.5 66.15 403.14 72.79 403.14 82.7V122.72H421.23L421.18 80.54C421.18 62.17 406.45 48.74 387.77 48.74C369.09 48.74 354.36 62.14 354.36 80.54V122.72H372.45V82.7H372.44Z" fill="white"/>
<path d="M880.23 161.59C859.84 161.59 859.49 183.84 854.67 183.84C853.66 183.84 852.87 182.95 852.87 181.73C852.87 180.1 853.29 178.69 853.29 176.07C853.29 168.08 847.67 161.58 835.88 161.58C825.87 161.58 818.55 166.59 814.08 175.87C811.81 180.57 812.01 183.84 809.72 183.84C808.87 183.84 808.22 183.04 808.22 181.89C808.22 178.49 811.23 175.37 811.23 168.06C811.23 166.16 811.08 164.55 810.78 163.25H791.38V238.43H817.69V197.64C817.69 189.6 821.13 184.45 827.01 184.45C830.91 184.45 834.38 187.85 834.38 194.09V238.43H860.69V197.64C860.69 188.61 864.87 184.45 870.01 184.45C874.32 184.45 877.38 188.44 877.38 194.09V238.43H903.39V192.27C903.39 172.1 895.38 161.59 880.23 161.59Z" fill="white"/>
<path d="M535.89 168.51C530.38 168.51 526.01 167.71 522.81 166.1V238.43H548.82V166.1C545.44 167.58 541.42 168.51 535.89 168.51Z" fill="white"/>
<path d="M535.74 141.74C524.99 141.74 519.35 146.5 519.35 151.96C519.35 157.85 526.01 162.19 535.74 162.19C545.47 162.19 552.13 157.85 552.13 151.96C552.13 146.49 546.49 141.74 535.74 141.74Z" fill="white"/>
<path d="M68.28 152.71C66.1 152.6 64.09 152.79 62.42 153.13C48.46 155.95 40.57 167.82 42.12 183.26C43.52 197.22 57.65 209 70.73 209.35C72.08 209.38 73.43 209.29 74.74 209.07C88.89 206.66 92.6 191.29 90.26 176.2C87.63 159.16 76.1 153.15 68.28 152.72V152.71ZM82.15 193.09C81.63 194.3 79.57 195.95 76.63 195.84C73.6 195.61 70.23 193.41 69.78 187.93C69.55 185.22 70.58 181.93 71.2 180.21C72.42 176.88 71.32 173.39 68.47 171.52C66.8 170.42 64.8 170.05 62.84 170.47C60.92 170.88 59.28 172.01 58.23 173.65C57.36 175.01 56.83 176.71 56.54 177.62C56.46 177.86 56.4 178.06 56.36 178.18C55.72 179.9 54.7 180.41 54 180.31C53.67 180.27 53.22 180.05 52.93 179.26C52.14 177.1 52.78 171 56.85 166.51C59.43 163.67 63.47 162.21 67.4 162.71C71.49 163.23 74.89 165.7 76.98 169.67C79.75 174.95 77.28 180.48 75.81 183.79C75.65 184.15 75.5 184.48 75.38 184.77C74.46 186.97 74.41 188.88 75.24 190.17C75.88 191.16 77.03 191.74 78.38 191.76C79.01 191.77 79.59 191.64 80.09 191.52C80.82 191.35 81.57 191.18 82.03 191.75C82.2 191.94 82.46 192.37 82.15 193.09Z" fill="white"/>
<path d="M265.04 179.41C263.4 177.39 261.41 175.76 259.27 174.61C259.09 174.02 258.9 173.39 258.7 172.75C258.47 172.01 258.23 171.31 258.01 170.66C261.35 163.59 261.09 157.45 260.51 154.05C259.62 148.31 257.17 143.51 252.81 138.92C247.49 133.33 238.63 129.75 231.57 127.63C231.48 124.28 231.38 120.47 231.27 118.11C231.13 114.96 230.84 108.43 228.8 101.84C227.28 96.42 225.05 91.45 222.28 87.24C232.97 74.41 238.76 61.16 238.75 49.33C238.72 30.17 223.8 17.79 200.75 17.79C189.8 17.79 177.32 20.56 164.63 25.82C164.61 25.82 163.91 26.12 162.94 26.53C159.08 22.75 154 17.76 153.66 17.47C147.86 12.41 140.66 9.84 132.25 9.84C122.25 9.84 110.75 13.55 98.09 20.86C87.17 27.17 75.43 36.18 64.14 46.94C41.13 68.87 22.58 95.12 14.51 117.17C11.05 126.64 9.56 135.23 10.09 142.7C10.73 151.78 14.41 159.39 20.73 164.73L24.66 168.06C23.42 173.45 23.09 179.16 23.68 185.1C24.81 196.37 30.52 207.08 39.75 215.26C47.17 221.84 56.27 226.11 65.43 227.43C73.65 243.84 86.2 257.67 102 267.65C119.04 278.42 139.44 284.45 160.99 285.09C162.36 285.13 163.75 285.15 165.12 285.15C187.37 285.15 208.2 279.68 225.36 269.33C243.03 258.68 256.56 243 264.49 223.99C264.52 223.92 264.55 223.85 264.57 223.78C265.94 220.26 270.41 207.86 270.41 196.21C270.41 187.79 267.48 182.42 265.02 179.41H265.04ZM256.15 220.5C240.92 257 204.57 277.32 161.27 276.03C120.9 274.83 86.48 253.53 71.41 218.81C62.3 218.81 52.91 214.81 45.77 208.49C38.25 201.83 33.61 193.2 32.7 184.2C32 177.19 32.86 170.68 35.05 164.99L26.59 157.82C-12.13 125.13 108.98 -9.48001 147.71 24.31C147.91 24.48 160.89 37.22 160.92 37.25C160.97 37.22 168.08 34.21 168.12 34.19C202.09 20.12 229.66 26.91 229.69 49.36C229.71 61.03 222.27 74.64 210.35 86.99C214.67 91 218.13 97.26 220.11 104.42C221.78 109.71 222.07 115.08 222.22 118.52C222.43 123.28 222.66 134.36 222.68 134.56C222.98 134.65 226.42 135.6 227.46 135.89C236.58 138.45 243.07 141.86 246.24 145.19C249.41 148.52 250.99 151.74 251.56 155.52C252.09 158.57 252.02 163.96 248 169.98C248 169.98 249.04 172.24 250.04 175.46C251.04 178.67 251.77 181.34 251.88 181.74C255.57 181.74 261.36 185.98 261.36 196.22C261.36 206.46 257.13 217.95 256.14 220.51L256.15 220.5Z" fill="white"/>
<path d="M250.07 190.07C248.12 188.87 245.78 189.29 245.78 189.29C245.78 189.29 244.72 182 241.7 175.37C232.76 182.43 221.25 187.39 212.48 189.9C202.37 192.8 188.68 195.03 173.41 194.12C164.94 193.44 159.33 190.96 157.22 197.81C176.57 204.9 197.06 201.86 197.06 201.86C197.46 201.82 197.81 202.11 197.85 202.5C197.88 202.82 197.69 203.15 197.4 203.27C197.4 203.27 181.66 210.58 156.67 202.85C157.36 208.71 163.08 211.34 165.81 212.4C169.25 213.74 173.01 214.36 173.01 214.36C203.98 219.69 232.93 201.98 239.45 197.52C239.94 197.19 240.26 197.52 239.87 198.1C239.49 198.67 239.47 198.7 239.23 199.01C231.25 209.3 209.8 221.22 181.9 221.21C169.73 221.21 157.57 216.92 153.1 210.33C146.17 200.11 152.76 185.19 164.3 186.74C164.31 186.74 168.25 187.19 169.36 187.31C183.79 188.92 204.68 186.89 221.9 178.9C237.65 171.59 243.6 163.54 242.71 157.03C242.47 155.27 241.68 153.44 240 151.7C237.17 148.93 232.68 146.77 225.11 144.65C222.61 143.95 220.91 143.5 219.08 142.9C215.83 141.83 214.22 140.97 213.86 134.85C213.7 132.18 213.23 122.86 213.07 119.01C212.77 112.26 211.96 103.04 206.24 99.24C204.75 98.25 203.09 97.77 201.35 97.68C199.64 97.6 198.79 97.91 198.45 97.96C195.18 98.51 193.25 100.25 190.85 102.26C183.71 108.21 177.69 109.18 170.99 108.89C166.99 108.72 162.74 108.1 157.88 107.81C156.93 107.75 155.98 107.7 155.04 107.65C143.82 107.08 131.78 116.77 129.78 130.53C127 149.69 140.87 159.59 144.87 165.4C145.38 166.09 145.97 167.07 145.97 168C145.97 169.11 145.25 169.99 144.54 170.74C133.09 182.51 129.43 201.21 133.74 216.8C134.28 218.75 134.96 220.61 135.77 222.39C145.89 246.05 177.3 257.06 207.97 247.04C212.08 245.7 215.97 244.04 219.63 242.12C226.51 238.75 232.53 234.11 237.48 228.78C245.62 220.27 250.46 211.03 252.34 199.64C253.26 193.54 251.91 191.18 250.07 190.05V190.07ZM208.76 150.91C208.72 153.43 207.19 155.45 205.35 155.42C203.51 155.39 202.06 153.32 202.1 150.8C202.14 148.28 203.67 146.26 205.51 146.29C207.35 146.32 208.8 148.39 208.76 150.91ZM200.33 121.1C203.91 120.52 205.64 124.23 206.92 130.35C207.78 134.47 207.62 138.25 206.66 140.44C205.01 140.21 203.21 140.22 201.33 140.44C199.9 138.62 198.62 135.67 197.9 132.23C196.62 126.11 196.75 121.68 200.33 121.1ZM188.33 154C189.14 152.35 191.63 151.91 193.9 153.03C196.16 154.14 197.34 156.38 196.53 158.03C195.72 159.68 193.23 160.12 190.96 159C188.7 157.89 187.52 155.65 188.33 154ZM174.31 152.15C173.94 152.72 173.15 152.62 171.48 152.43C168.45 152.08 165.39 151.88 160.75 153.54C160.75 153.54 159.06 154.22 158.31 154.22C158.09 154.22 157.91 154.15 157.76 154.01C157.65 153.92 157.51 153.73 157.51 153.4C157.51 152.72 158.13 151.74 159.13 150.86C160.31 149.84 162.15 148.74 165.48 148.21C170.07 147.67 173.44 149.81 174.22 151.07C174.56 151.61 174.42 151.97 174.31 152.14V152.15ZM148.71 145.83C148.11 145.75 147.85 145.49 147.78 145.15C147.55 144.09 149.17 142.36 150.88 141.1C156.07 137.37 162.79 136.57 168.42 138.99C171.18 140.16 173.77 142.25 175.04 144.32C175.65 145.32 175.77 146.09 175.37 146.5C174.75 147.15 173.18 146.41 170.62 145.28C168.06 144.16 164.74 142.9 160.73 143.15C155.05 143.5 150.12 145.99 148.7 145.83H148.71Z" fill="white"/>
<path d="M187.69 76.39C188.18 76.5 188.49 75.65 188.05 75.41C181.57 71.77 171.62 69.3 164.56 69.25C164.21 69.25 164.02 68.85 164.22 68.57C165.44 66.93 167.11 65.31 168.64 64.13C168.98 63.87 168.78 63.31 168.34 63.34C158.29 63.96 146.83 68.77 140.25 73.26C139.93 73.48 139.51 73.19 139.59 72.81C140.1 70.34 141.72 67.08 142.56 65.56C142.76 65.2 142.37 64.8 142 64.99C131.41 70.41 119.6 80.05 110 91.14C109.66 91.53 110.16 92.09 110.58 91.78C118.87 85.75 130.24 80.14 145.13 76.51C161.81 72.44 177.87 74.15 187.68 76.4L187.69 76.39Z" fill="white"/>
<path d="M151.85 42C151.85 42 141.31 29.78 138.13 28.88C118.55 23.59 76.26 52.76 49.26 91.29C38.33 106.88 22.69 134.49 30.17 148.69C31.09 150.45 36.31 154.97 39.11 157.31C43.79 150.5 51.45 145.58 60.15 143.89C71.22 114.19 89.69 86.83 114.14 68C132.29 52.86 151.86 42.01 151.86 42.01L151.85 42Z" fill="white"/>
</svg>
